<svg width="37" height="38" viewBox="0 0 37 38" fill="none" xmlns="http://www.w3.org/2000/svg">
<path opacity="0.1" fill-rule="evenodd" clip-rule="evenodd" d="M18.5 36.666C28.165 36.666 36 28.831 36 19.166C36 9.50103 28.165 1.66602 18.5 1.66602C8.83502 1.66602 1 9.50103 1 19.166C1 28.831 8.83502 36.666 18.5 36.666Z" stroke="#18A5A7" stroke-width="1.5"/>
<path d="M20.0932 14.6868H21.7016C21.8495 14.6868 21.9696 14.5736 21.9696 14.4342V12.9186C21.9696 12.7792 21.8495 12.666 21.7016 12.666H20.0932C18.4677 12.666 17.1445 13.9123 17.1445 15.4446V17.2128H15.2681C15.1201 17.2128 15 17.3259 15 17.4654V18.981C15 19.1204 15.1201 19.2336 15.2681 19.2336H17.1445V24.5381C17.1445 24.6776 17.2646 24.7907 17.4126 24.7907H19.0209C19.1689 24.7907 19.289 24.6776 19.289 24.5381V19.2336H21.1655C21.2807 19.2336 21.3831 19.1638 21.4201 19.0608L21.9562 17.5452C21.9836 17.4684 21.9696 17.3835 21.9192 17.3174C21.8683 17.2517 21.7879 17.2128 21.7016 17.2128H19.289V15.4446C19.289 15.0268 19.6498 14.6868 20.0932 14.6868Z" fill="#18A5A7"/>
</svg>
