<svg width="37" height="38" viewBox="0 0 37 38" fill="none" xmlns="http://www.w3.org/2000/svg">
<path opacity="0.1" fill-rule="evenodd" clip-rule="evenodd" d="M18.5 36.666C28.165 36.666 36 28.831 36 19.166C36 9.50103 28.165 1.66602 18.5 1.66602C8.83502 1.66602 1 9.50103 1 19.166C1 28.831 8.83502 36.666 18.5 36.666Z" stroke="#18A5A7" stroke-width="1.5"/>
<path d="M14.4835 15.6331C15.3029 15.6331 15.9671 14.9689 15.9671 14.1496C15.9671 13.3302 15.3029 12.666 14.4835 12.666C13.6642 12.666 13 13.3302 13 14.1496C13 14.9689 13.6642 15.6331 14.4835 15.6331Z" fill="#18A5A7"/>
<path d="M15.7198 16.625H13.2473C13.1108 16.625 13 16.7358 13 16.8723V24.29C13 24.4265 13.1108 24.5373 13.2473 24.5373H15.7198C15.8563 24.5373 15.9671 24.4265 15.9671 24.29V16.8723C15.9671 16.7358 15.8563 16.625 15.7198 16.625Z" fill="#18A5A7"/>
<path d="M23.088 16.2124C22.0313 15.8504 20.7094 16.1684 19.9167 16.7386C19.8895 16.6323 19.7926 16.5531 19.6774 16.5531H17.2048C17.0683 16.5531 16.9575 16.6639 16.9575 16.8004V24.2181C16.9575 24.3546 17.0683 24.4654 17.2048 24.4654H19.6774C19.8138 24.4654 19.9246 24.3546 19.9246 24.2181V18.8873C20.3242 18.5431 20.839 18.4333 21.2603 18.6123C21.6688 18.7849 21.9027 19.2062 21.9027 19.7675V24.2181C21.9027 24.3546 22.0135 24.4654 22.1499 24.4654H24.6225C24.759 24.4654 24.8698 24.3546 24.8698 24.2181V19.2695C24.8416 17.2375 23.8857 16.4854 23.088 16.2124Z" fill="#18A5A7"/>
</svg>
