<svg width="37" height="38" viewBox="0 0 37 38" fill="none" xmlns="http://www.w3.org/2000/svg">
<path opacity="0.1" fill-rule="evenodd" clip-rule="evenodd" d="M18.5 36.666C28.165 36.666 36 28.831 36 19.166C36 9.50103 28.165 1.66602 18.5 1.66602C8.83502 1.66602 1 9.50103 1 19.166C1 28.831 8.83502 36.666 18.5 36.666Z" stroke="#18A5A7" stroke-width="1.5"/>
<path d="M24.2202 15.9307C24.139 15.8389 24.0081 15.8158 23.9007 15.8724C23.8339 15.9076 23.7083 15.9538 23.5592 15.9994C23.7473 15.7422 23.8985 15.4542 23.9653 15.1953C23.9942 15.0837 23.952 14.9661 23.8601 14.8996C23.7682 14.8337 23.6458 14.8337 23.5539 14.8996C23.4091 15.0035 22.7102 15.3157 22.2683 15.4168C21.2696 14.5171 20.1074 14.4237 18.8992 15.1492C17.9171 15.7389 17.7034 16.9381 17.7451 17.6691C15.4971 17.4465 14.0998 16.2253 13.3132 15.2146C13.2582 15.1437 13.1695 15.1063 13.0861 15.1118C12.9985 15.1184 12.9194 15.1684 12.8745 15.2459C12.5026 15.8917 12.3995 16.6056 12.5774 17.3108C12.6747 17.6955 12.8446 18.0346 13.0418 18.3094C12.9472 18.2616 12.8558 18.2017 12.7698 18.1302C12.6907 18.0632 12.5801 18.0505 12.4866 18.0951C12.3936 18.1407 12.3343 18.2374 12.3343 18.3435C12.3343 19.5543 13.0706 20.3622 13.7583 20.7843C13.6472 20.7705 13.5312 20.7453 13.4142 20.7084C13.3138 20.6771 13.2048 20.7084 13.1353 20.7898C13.0658 20.8706 13.0493 20.986 13.0926 21.0844C13.4789 21.9632 14.2109 22.5678 15.1166 22.7871C14.3258 23.2647 13.2673 23.4988 12.298 23.3839C12.1724 23.3658 12.0527 23.4477 12.0132 23.5719C11.9736 23.6961 12.0255 23.8324 12.1361 23.8962C13.6066 24.7453 14.936 25.0487 16.0849 25.0487C17.7568 25.0487 19.0472 24.4067 19.8327 23.8698C21.9503 22.4243 23.2701 19.8291 23.0863 17.507C23.4256 17.2492 23.9333 16.7732 24.248 16.2616C24.3132 16.1582 24.3014 16.0219 24.2202 15.9307Z" fill="#18A5A7"/>
</svg>
